<mxfile host="app.diagrams.net" modified="2024-04-07T11:07:19.830Z" agent="Mozilla/5.0 (Macintosh; Intel Mac OS X 10_15_7) AppleWebKit/605.1.15 (KHTML, like Gecko) Version/16.5 Safari/605.1.15" etag="xCp4ITBTpLG04z8a2mDd" version="24.2.2" type="device">
  <diagram id="R2lEEEUBdFMjLlhIrx00" name="Page-1">
    <mxGraphModel dx="898" dy="667" grid="1" gridSize="10" guides="1" tooltips="1" connect="1" arrows="1" fold="1" page="1" pageScale="1" pageWidth="850" pageHeight="1100" math="0" shadow="0" extFonts="Permanent Marker^https://fonts.googleapis.com/css?family=Permanent+Marker">
      <root>
        <mxCell id="0" />
        <mxCell id="1" parent="0" />
        <mxCell id="f0kvpbH76hxMQlUbmfYy-1" value="User" style="whiteSpace=wrap;html=1;align=center;" vertex="1" parent="1">
          <mxGeometry x="80" y="220" width="100" height="40" as="geometry" />
        </mxCell>
        <mxCell id="f0kvpbH76hxMQlUbmfYy-2" value="user_id" style="ellipse;whiteSpace=wrap;html=1;align=center;fontStyle=4;" vertex="1" parent="1">
          <mxGeometry x="80" y="20" width="100" height="40" as="geometry" />
        </mxCell>
        <mxCell id="f0kvpbH76hxMQlUbmfYy-3" value="Login" style="ellipse;whiteSpace=wrap;html=1;align=center;" vertex="1" parent="1">
          <mxGeometry x="80" y="70" width="100" height="40" as="geometry" />
        </mxCell>
        <mxCell id="f0kvpbH76hxMQlUbmfYy-4" value="Password" style="ellipse;whiteSpace=wrap;html=1;align=center;" vertex="1" parent="1">
          <mxGeometry x="80" y="120" width="100" height="40" as="geometry" />
        </mxCell>
        <mxCell id="f0kvpbH76hxMQlUbmfYy-5" value="Project" style="whiteSpace=wrap;html=1;align=center;" vertex="1" parent="1">
          <mxGeometry x="580" y="220" width="100" height="40" as="geometry" />
        </mxCell>
        <mxCell id="f0kvpbH76hxMQlUbmfYy-6" value="project_id" style="ellipse;whiteSpace=wrap;html=1;align=center;fontStyle=4;" vertex="1" parent="1">
          <mxGeometry x="580" y="20" width="100" height="40" as="geometry" />
        </mxCell>
        <mxCell id="f0kvpbH76hxMQlUbmfYy-7" value="Name" style="ellipse;whiteSpace=wrap;html=1;align=center;" vertex="1" parent="1">
          <mxGeometry x="580" y="70" width="100" height="40" as="geometry" />
        </mxCell>
        <mxCell id="f0kvpbH76hxMQlUbmfYy-8" value="Description" style="ellipse;whiteSpace=wrap;html=1;align=center;" vertex="1" parent="1">
          <mxGeometry x="580" y="120" width="100" height="40" as="geometry" />
        </mxCell>
        <mxCell id="f0kvpbH76hxMQlUbmfYy-10" value="id" style="ellipse;whiteSpace=wrap;html=1;align=center;fontStyle=4;" vertex="1" parent="1">
          <mxGeometry x="580" y="580.4" width="100" height="40" as="geometry" />
        </mxCell>
        <mxCell id="f0kvpbH76hxMQlUbmfYy-12" value="Category" style="shape=ext;margin=3;double=1;whiteSpace=wrap;html=1;align=center;" vertex="1" parent="1">
          <mxGeometry x="580" y="470.40000000000003" width="100" height="40" as="geometry" />
        </mxCell>
        <mxCell id="f0kvpbH76hxMQlUbmfYy-14" value="Name" style="ellipse;whiteSpace=wrap;html=1;align=center;" vertex="1" parent="1">
          <mxGeometry x="580" y="680.4" width="100" height="40" as="geometry" />
        </mxCell>
        <mxCell id="f0kvpbH76hxMQlUbmfYy-15" value="Record" style="shape=ext;margin=3;double=1;whiteSpace=wrap;html=1;align=center;" vertex="1" parent="1">
          <mxGeometry x="190" y="470.4" width="100" height="40" as="geometry" />
        </mxCell>
        <mxCell id="f0kvpbH76hxMQlUbmfYy-19" value="Date" style="ellipse;whiteSpace=wrap;html=1;align=center;" vertex="1" parent="1">
          <mxGeometry x="190" y="831.4" width="100" height="40" as="geometry" />
        </mxCell>
        <mxCell id="f0kvpbH76hxMQlUbmfYy-20" value="id" style="ellipse;whiteSpace=wrap;html=1;align=center;fontStyle=4;" vertex="1" parent="1">
          <mxGeometry x="190" y="580.4" width="100" height="40" as="geometry" />
        </mxCell>
        <mxCell id="f0kvpbH76hxMQlUbmfYy-21" value="Note" style="ellipse;whiteSpace=wrap;html=1;align=center;" vertex="1" parent="1">
          <mxGeometry x="190" y="780.4" width="100" height="40" as="geometry" />
        </mxCell>
        <mxCell id="f0kvpbH76hxMQlUbmfYy-25" value="category_id" style="ellipse;whiteSpace=wrap;html=1;align=center;" vertex="1" parent="1">
          <mxGeometry x="190" y="630.4" width="100" height="40" as="geometry" />
        </mxCell>
        <mxCell id="f0kvpbH76hxMQlUbmfYy-27" value="user_id" style="ellipse;whiteSpace=wrap;html=1;align=center;" vertex="1" parent="1">
          <mxGeometry x="190" y="680.4" width="100" height="40" as="geometry" />
        </mxCell>
        <mxCell id="f0kvpbH76hxMQlUbmfYy-28" value="project_id" style="ellipse;whiteSpace=wrap;html=1;align=center;" vertex="1" parent="1">
          <mxGeometry x="580" y="630.4" width="100" height="40" as="geometry" />
        </mxCell>
        <mxCell id="f0kvpbH76hxMQlUbmfYy-29" value="Sum" style="ellipse;whiteSpace=wrap;html=1;align=center;" vertex="1" parent="1">
          <mxGeometry x="190" y="730.4" width="100" height="40" as="geometry" />
        </mxCell>
        <mxCell id="f0kvpbH76hxMQlUbmfYy-32" value="" style="endArrow=none;html=1;rounded=0;exitX=0.5;exitY=0;exitDx=0;exitDy=0;entryX=0;entryY=0.5;entryDx=0;entryDy=0;" edge="1" parent="1" source="f0kvpbH76hxMQlUbmfYy-1" target="f0kvpbH76hxMQlUbmfYy-4">
          <mxGeometry width="50" height="50" relative="1" as="geometry">
            <mxPoint x="450" y="360" as="sourcePoint" />
            <mxPoint x="140" y="170" as="targetPoint" />
            <Array as="points">
              <mxPoint x="130" y="200" />
              <mxPoint x="40" y="200" />
              <mxPoint x="40" y="140" />
            </Array>
          </mxGeometry>
        </mxCell>
        <mxCell id="f0kvpbH76hxMQlUbmfYy-33" value="" style="endArrow=none;html=1;rounded=0;entryX=0;entryY=0.5;entryDx=0;entryDy=0;" edge="1" parent="1" target="f0kvpbH76hxMQlUbmfYy-3">
          <mxGeometry width="50" height="50" relative="1" as="geometry">
            <mxPoint x="40" y="140" as="sourcePoint" />
            <mxPoint x="500" y="310" as="targetPoint" />
            <Array as="points">
              <mxPoint x="40" y="90" />
            </Array>
          </mxGeometry>
        </mxCell>
        <mxCell id="f0kvpbH76hxMQlUbmfYy-34" value="" style="endArrow=none;html=1;rounded=0;entryX=0;entryY=0.5;entryDx=0;entryDy=0;" edge="1" parent="1" target="f0kvpbH76hxMQlUbmfYy-2">
          <mxGeometry width="50" height="50" relative="1" as="geometry">
            <mxPoint x="40" y="90" as="sourcePoint" />
            <mxPoint x="470" y="310" as="targetPoint" />
            <Array as="points">
              <mxPoint x="40" y="40" />
            </Array>
          </mxGeometry>
        </mxCell>
        <mxCell id="f0kvpbH76hxMQlUbmfYy-37" value="" style="endArrow=none;html=1;rounded=0;exitX=0;exitY=0.5;exitDx=0;exitDy=0;entryX=0.5;entryY=0;entryDx=0;entryDy=0;" edge="1" parent="1" source="f0kvpbH76hxMQlUbmfYy-8" target="f0kvpbH76hxMQlUbmfYy-5">
          <mxGeometry width="50" height="50" relative="1" as="geometry">
            <mxPoint x="585" y="140" as="sourcePoint" />
            <mxPoint x="590" y="260" as="targetPoint" />
            <Array as="points">
              <mxPoint x="540" y="140" />
              <mxPoint x="540" y="200" />
              <mxPoint x="630" y="200" />
            </Array>
          </mxGeometry>
        </mxCell>
        <mxCell id="f0kvpbH76hxMQlUbmfYy-39" value="" style="endArrow=none;html=1;rounded=0;entryX=0;entryY=0.5;entryDx=0;entryDy=0;" edge="1" parent="1" target="f0kvpbH76hxMQlUbmfYy-7">
          <mxGeometry width="50" height="50" relative="1" as="geometry">
            <mxPoint x="540" y="140" as="sourcePoint" />
            <mxPoint x="730" y="310" as="targetPoint" />
            <Array as="points">
              <mxPoint x="540" y="90" />
            </Array>
          </mxGeometry>
        </mxCell>
        <mxCell id="f0kvpbH76hxMQlUbmfYy-40" value="" style="endArrow=none;html=1;rounded=0;entryX=0;entryY=0.5;entryDx=0;entryDy=0;" edge="1" parent="1" target="f0kvpbH76hxMQlUbmfYy-6">
          <mxGeometry width="50" height="50" relative="1" as="geometry">
            <mxPoint x="540" y="90" as="sourcePoint" />
            <mxPoint x="580" y="40" as="targetPoint" />
            <Array as="points">
              <mxPoint x="540" y="40" />
            </Array>
          </mxGeometry>
        </mxCell>
        <mxCell id="f0kvpbH76hxMQlUbmfYy-43" value="" style="endArrow=none;html=1;rounded=0;entryX=0;entryY=0.5;entryDx=0;entryDy=0;" edge="1" parent="1" target="f0kvpbH76hxMQlUbmfYy-28">
          <mxGeometry width="50" height="50" relative="1" as="geometry">
            <mxPoint x="540" y="700.4" as="sourcePoint" />
            <mxPoint x="490" y="870.4" as="targetPoint" />
            <Array as="points">
              <mxPoint x="540" y="650.4" />
            </Array>
          </mxGeometry>
        </mxCell>
        <mxCell id="f0kvpbH76hxMQlUbmfYy-44" value="" style="endArrow=none;html=1;rounded=0;entryX=0;entryY=0.5;entryDx=0;entryDy=0;" edge="1" parent="1" target="f0kvpbH76hxMQlUbmfYy-10">
          <mxGeometry width="50" height="50" relative="1" as="geometry">
            <mxPoint x="540" y="650.4" as="sourcePoint" />
            <mxPoint x="580" y="600.4" as="targetPoint" />
            <Array as="points">
              <mxPoint x="540" y="600.4" />
            </Array>
          </mxGeometry>
        </mxCell>
        <mxCell id="f0kvpbH76hxMQlUbmfYy-46" value="Project Member" style="shape=associativeEntity;whiteSpace=wrap;html=1;align=center;" vertex="1" parent="1">
          <mxGeometry x="300" y="210" width="140" height="60" as="geometry" />
        </mxCell>
        <mxCell id="f0kvpbH76hxMQlUbmfYy-47" value="user_id" style="ellipse;whiteSpace=wrap;html=1;align=center;fontStyle=4;" vertex="1" parent="1">
          <mxGeometry x="320" y="20" width="100" height="40" as="geometry" />
        </mxCell>
        <mxCell id="f0kvpbH76hxMQlUbmfYy-48" value="project_id" style="ellipse;whiteSpace=wrap;html=1;align=center;fontStyle=4;" vertex="1" parent="1">
          <mxGeometry x="320" y="70" width="100" height="40" as="geometry" />
        </mxCell>
        <mxCell id="f0kvpbH76hxMQlUbmfYy-49" value="Status" style="ellipse;whiteSpace=wrap;html=1;align=center;" vertex="1" parent="1">
          <mxGeometry x="320" y="120" width="100" height="40" as="geometry" />
        </mxCell>
        <mxCell id="f0kvpbH76hxMQlUbmfYy-50" value="" style="endArrow=none;html=1;rounded=0;entryX=0;entryY=0.5;entryDx=0;entryDy=0;" edge="1" parent="1" target="f0kvpbH76hxMQlUbmfYy-47">
          <mxGeometry width="50" height="50" relative="1" as="geometry">
            <mxPoint x="280" y="90" as="sourcePoint" />
            <mxPoint x="320" y="40" as="targetPoint" />
            <Array as="points">
              <mxPoint x="280" y="40" />
            </Array>
          </mxGeometry>
        </mxCell>
        <mxCell id="f0kvpbH76hxMQlUbmfYy-51" value="" style="endArrow=none;html=1;rounded=0;entryX=0;entryY=0.5;entryDx=0;entryDy=0;" edge="1" parent="1">
          <mxGeometry width="50" height="50" relative="1" as="geometry">
            <mxPoint x="280" y="140" as="sourcePoint" />
            <mxPoint x="320" y="90" as="targetPoint" />
            <Array as="points">
              <mxPoint x="280" y="90" />
            </Array>
          </mxGeometry>
        </mxCell>
        <mxCell id="f0kvpbH76hxMQlUbmfYy-54" value="" style="endArrow=none;html=1;rounded=0;entryX=0;entryY=0.5;entryDx=0;entryDy=0;" edge="1" parent="1" target="f0kvpbH76hxMQlUbmfYy-20">
          <mxGeometry width="50" height="50" relative="1" as="geometry">
            <mxPoint x="150" y="650.4" as="sourcePoint" />
            <mxPoint x="190" y="600.4" as="targetPoint" />
            <Array as="points">
              <mxPoint x="150" y="600.4" />
            </Array>
          </mxGeometry>
        </mxCell>
        <mxCell id="f0kvpbH76hxMQlUbmfYy-55" value="" style="endArrow=none;html=1;rounded=0;entryX=0;entryY=0.5;entryDx=0;entryDy=0;" edge="1" parent="1" target="f0kvpbH76hxMQlUbmfYy-25">
          <mxGeometry width="50" height="50" relative="1" as="geometry">
            <mxPoint x="150" y="700.4" as="sourcePoint" />
            <mxPoint x="190" y="650.4" as="targetPoint" />
            <Array as="points">
              <mxPoint x="150" y="650.4" />
            </Array>
          </mxGeometry>
        </mxCell>
        <mxCell id="f0kvpbH76hxMQlUbmfYy-56" value="" style="endArrow=none;html=1;rounded=0;entryX=0;entryY=0.5;entryDx=0;entryDy=0;" edge="1" parent="1" target="f0kvpbH76hxMQlUbmfYy-27">
          <mxGeometry width="50" height="50" relative="1" as="geometry">
            <mxPoint x="150" y="750.4" as="sourcePoint" />
            <mxPoint x="190" y="700.4" as="targetPoint" />
            <Array as="points">
              <mxPoint x="150" y="700.4" />
            </Array>
          </mxGeometry>
        </mxCell>
        <mxCell id="f0kvpbH76hxMQlUbmfYy-57" value="" style="endArrow=none;html=1;rounded=0;entryX=0;entryY=0.5;entryDx=0;entryDy=0;" edge="1" parent="1" target="f0kvpbH76hxMQlUbmfYy-29">
          <mxGeometry width="50" height="50" relative="1" as="geometry">
            <mxPoint x="150" y="800.4" as="sourcePoint" />
            <mxPoint x="190" y="750.4" as="targetPoint" />
            <Array as="points">
              <mxPoint x="150" y="750.4" />
            </Array>
          </mxGeometry>
        </mxCell>
        <mxCell id="f0kvpbH76hxMQlUbmfYy-58" value="" style="endArrow=none;html=1;rounded=0;entryX=0;entryY=0.5;entryDx=0;entryDy=0;" edge="1" parent="1" target="f0kvpbH76hxMQlUbmfYy-21">
          <mxGeometry width="50" height="50" relative="1" as="geometry">
            <mxPoint x="150" y="850.4" as="sourcePoint" />
            <mxPoint x="190" y="800.4" as="targetPoint" />
            <Array as="points">
              <mxPoint x="150" y="800.4" />
            </Array>
          </mxGeometry>
        </mxCell>
        <mxCell id="f0kvpbH76hxMQlUbmfYy-59" value="" style="endArrow=none;html=1;rounded=0;entryX=0;entryY=0.5;entryDx=0;entryDy=0;" edge="1" parent="1" target="f0kvpbH76hxMQlUbmfYy-19">
          <mxGeometry width="50" height="50" relative="1" as="geometry">
            <mxPoint x="150" y="850.4" as="sourcePoint" />
            <mxPoint x="190" y="850.4" as="targetPoint" />
            <Array as="points">
              <mxPoint x="150" y="850.4" />
            </Array>
          </mxGeometry>
        </mxCell>
        <mxCell id="f0kvpbH76hxMQlUbmfYy-60" value="" style="endArrow=none;html=1;rounded=0;entryX=0.5;entryY=1;entryDx=0;entryDy=0;" edge="1" parent="1" target="f0kvpbH76hxMQlUbmfYy-15">
          <mxGeometry width="50" height="50" relative="1" as="geometry">
            <mxPoint x="150" y="600.4" as="sourcePoint" />
            <mxPoint x="190" y="550.4" as="targetPoint" />
            <Array as="points">
              <mxPoint x="150" y="550.4" />
              <mxPoint x="240" y="550.4" />
            </Array>
          </mxGeometry>
        </mxCell>
        <mxCell id="f0kvpbH76hxMQlUbmfYy-61" value="" style="endArrow=none;html=1;rounded=0;entryX=1;entryY=0.5;entryDx=0;entryDy=0;exitX=0;exitY=0.5;exitDx=0;exitDy=0;" edge="1" parent="1" source="f0kvpbH76hxMQlUbmfYy-46" target="f0kvpbH76hxMQlUbmfYy-1">
          <mxGeometry relative="1" as="geometry">
            <mxPoint x="380" y="400" as="sourcePoint" />
            <mxPoint x="540" y="400" as="targetPoint" />
            <Array as="points">
              <mxPoint x="210" y="240" />
            </Array>
          </mxGeometry>
        </mxCell>
        <mxCell id="f0kvpbH76hxMQlUbmfYy-62" value="N" style="resizable=0;html=1;whiteSpace=wrap;align=right;verticalAlign=bottom;" connectable="0" vertex="1" parent="f0kvpbH76hxMQlUbmfYy-61">
          <mxGeometry x="1" relative="1" as="geometry">
            <mxPoint x="20" as="offset" />
          </mxGeometry>
        </mxCell>
        <mxCell id="f0kvpbH76hxMQlUbmfYy-63" value="" style="endArrow=none;html=1;rounded=0;exitX=1;exitY=0.5;exitDx=0;exitDy=0;entryX=0;entryY=0.5;entryDx=0;entryDy=0;" edge="1" parent="1" source="f0kvpbH76hxMQlUbmfYy-46" target="f0kvpbH76hxMQlUbmfYy-5">
          <mxGeometry relative="1" as="geometry">
            <mxPoint x="420" y="400" as="sourcePoint" />
            <mxPoint x="580" y="400" as="targetPoint" />
            <Array as="points">
              <mxPoint x="500" y="240" />
            </Array>
          </mxGeometry>
        </mxCell>
        <mxCell id="f0kvpbH76hxMQlUbmfYy-64" value="M" style="resizable=0;html=1;whiteSpace=wrap;align=right;verticalAlign=bottom;" connectable="0" vertex="1" parent="f0kvpbH76hxMQlUbmfYy-63">
          <mxGeometry x="1" relative="1" as="geometry">
            <mxPoint x="-10" as="offset" />
          </mxGeometry>
        </mxCell>
        <mxCell id="f0kvpbH76hxMQlUbmfYy-65" value="Includes" style="shape=rhombus;perimeter=rhombusPerimeter;whiteSpace=wrap;html=1;align=center;" vertex="1" parent="1">
          <mxGeometry x="570" y="330" width="120" height="60" as="geometry" />
        </mxCell>
        <mxCell id="f0kvpbH76hxMQlUbmfYy-66" value="" style="endArrow=none;html=1;rounded=0;entryX=0.5;entryY=0;entryDx=0;entryDy=0;exitX=0.5;exitY=1;exitDx=0;exitDy=0;" edge="1" parent="1" source="f0kvpbH76hxMQlUbmfYy-65" target="f0kvpbH76hxMQlUbmfYy-12">
          <mxGeometry relative="1" as="geometry">
            <mxPoint x="580" y="390" as="sourcePoint" />
            <mxPoint x="460" y="760" as="targetPoint" />
            <Array as="points" />
          </mxGeometry>
        </mxCell>
        <mxCell id="f0kvpbH76hxMQlUbmfYy-67" value="N" style="resizable=0;html=1;whiteSpace=wrap;align=right;verticalAlign=bottom;" connectable="0" vertex="1" parent="f0kvpbH76hxMQlUbmfYy-66">
          <mxGeometry x="1" relative="1" as="geometry">
            <mxPoint y="-10" as="offset" />
          </mxGeometry>
        </mxCell>
        <mxCell id="f0kvpbH76hxMQlUbmfYy-70" value="" style="endArrow=none;html=1;rounded=0;exitX=0.5;exitY=0;exitDx=0;exitDy=0;entryX=0.5;entryY=1;entryDx=0;entryDy=0;" edge="1" parent="1" source="f0kvpbH76hxMQlUbmfYy-65" target="f0kvpbH76hxMQlUbmfYy-5">
          <mxGeometry relative="1" as="geometry">
            <mxPoint x="810" y="269.5" as="sourcePoint" />
            <mxPoint x="810" y="340" as="targetPoint" />
          </mxGeometry>
        </mxCell>
        <mxCell id="f0kvpbH76hxMQlUbmfYy-71" value="1" style="resizable=0;html=1;whiteSpace=wrap;align=right;verticalAlign=bottom;" connectable="0" vertex="1" parent="f0kvpbH76hxMQlUbmfYy-70">
          <mxGeometry x="1" relative="1" as="geometry">
            <mxPoint y="30" as="offset" />
          </mxGeometry>
        </mxCell>
        <mxCell id="f0kvpbH76hxMQlUbmfYy-72" value="" style="endArrow=none;html=1;rounded=0;entryX=0;entryY=0.5;entryDx=0;entryDy=0;" edge="1" parent="1" source="f0kvpbH76hxMQlUbmfYy-46" target="f0kvpbH76hxMQlUbmfYy-49">
          <mxGeometry width="50" height="50" relative="1" as="geometry">
            <mxPoint x="370" y="210" as="sourcePoint" />
            <mxPoint x="320" y="140" as="targetPoint" />
            <Array as="points">
              <mxPoint x="370" y="190" />
              <mxPoint x="280" y="190" />
              <mxPoint x="280" y="140" />
            </Array>
          </mxGeometry>
        </mxCell>
        <mxCell id="f0kvpbH76hxMQlUbmfYy-73" value="" style="endArrow=none;html=1;rounded=0;" edge="1" parent="1" target="f0kvpbH76hxMQlUbmfYy-12">
          <mxGeometry width="50" height="50" relative="1" as="geometry">
            <mxPoint x="540" y="600.4" as="sourcePoint" />
            <mxPoint x="630" y="510.40000000000003" as="targetPoint" />
            <Array as="points">
              <mxPoint x="540" y="550.4" />
              <mxPoint x="630" y="550.4" />
            </Array>
          </mxGeometry>
        </mxCell>
        <mxCell id="f0kvpbH76hxMQlUbmfYy-74" value="" style="endArrow=none;html=1;rounded=0;entryX=0;entryY=0.5;entryDx=0;entryDy=0;" edge="1" parent="1" target="f0kvpbH76hxMQlUbmfYy-14">
          <mxGeometry width="50" height="50" relative="1" as="geometry">
            <mxPoint x="540" y="700.4" as="sourcePoint" />
            <mxPoint x="580" y="700.4" as="targetPoint" />
            <Array as="points">
              <mxPoint x="540" y="700.4" />
            </Array>
          </mxGeometry>
        </mxCell>
        <mxCell id="f0kvpbH76hxMQlUbmfYy-75" value="Creates" style="shape=rhombus;perimeter=rhombusPerimeter;whiteSpace=wrap;html=1;align=center;" vertex="1" parent="1">
          <mxGeometry x="70" y="350" width="120" height="60" as="geometry" />
        </mxCell>
        <mxCell id="f0kvpbH76hxMQlUbmfYy-76" value="" style="endArrow=none;html=1;rounded=0;entryX=0.5;entryY=1;entryDx=0;entryDy=0;exitX=0.5;exitY=0;exitDx=0;exitDy=0;" edge="1" parent="1" source="f0kvpbH76hxMQlUbmfYy-75" target="f0kvpbH76hxMQlUbmfYy-1">
          <mxGeometry relative="1" as="geometry">
            <mxPoint x="410" y="570" as="sourcePoint" />
            <mxPoint x="570" y="570" as="targetPoint" />
          </mxGeometry>
        </mxCell>
        <mxCell id="f0kvpbH76hxMQlUbmfYy-77" value="1" style="resizable=0;html=1;whiteSpace=wrap;align=right;verticalAlign=bottom;" connectable="0" vertex="1" parent="f0kvpbH76hxMQlUbmfYy-76">
          <mxGeometry x="1" relative="1" as="geometry">
            <mxPoint y="30" as="offset" />
          </mxGeometry>
        </mxCell>
        <mxCell id="f0kvpbH76hxMQlUbmfYy-78" value="" style="endArrow=none;html=1;rounded=0;exitX=0.5;exitY=1;exitDx=0;exitDy=0;entryX=0;entryY=0.5;entryDx=0;entryDy=0;" edge="1" parent="1" source="f0kvpbH76hxMQlUbmfYy-75" target="f0kvpbH76hxMQlUbmfYy-15">
          <mxGeometry relative="1" as="geometry">
            <mxPoint x="410" y="590" as="sourcePoint" />
            <mxPoint x="570" y="590" as="targetPoint" />
            <Array as="points">
              <mxPoint x="130" y="490" />
            </Array>
          </mxGeometry>
        </mxCell>
        <mxCell id="f0kvpbH76hxMQlUbmfYy-79" value="M" style="resizable=0;html=1;whiteSpace=wrap;align=right;verticalAlign=bottom;" connectable="0" vertex="1" parent="f0kvpbH76hxMQlUbmfYy-78">
          <mxGeometry x="1" relative="1" as="geometry">
            <mxPoint x="-10" as="offset" />
          </mxGeometry>
        </mxCell>
        <mxCell id="f0kvpbH76hxMQlUbmfYy-80" value="Related to" style="shape=rhombus;perimeter=rhombusPerimeter;whiteSpace=wrap;html=1;align=center;" vertex="1" parent="1">
          <mxGeometry x="370" y="460.4" width="120" height="60" as="geometry" />
        </mxCell>
        <mxCell id="f0kvpbH76hxMQlUbmfYy-81" value="" style="endArrow=none;html=1;rounded=0;entryX=1;entryY=0.5;entryDx=0;entryDy=0;exitX=0;exitY=0.5;exitDx=0;exitDy=0;" edge="1" parent="1" source="f0kvpbH76hxMQlUbmfYy-80" target="f0kvpbH76hxMQlUbmfYy-15">
          <mxGeometry relative="1" as="geometry">
            <mxPoint x="420" y="560" as="sourcePoint" />
            <mxPoint x="580" y="560" as="targetPoint" />
          </mxGeometry>
        </mxCell>
        <mxCell id="f0kvpbH76hxMQlUbmfYy-82" value="N" style="resizable=0;html=1;whiteSpace=wrap;align=right;verticalAlign=bottom;" connectable="0" vertex="1" parent="f0kvpbH76hxMQlUbmfYy-81">
          <mxGeometry x="1" relative="1" as="geometry">
            <mxPoint x="20" as="offset" />
          </mxGeometry>
        </mxCell>
        <mxCell id="f0kvpbH76hxMQlUbmfYy-83" value="" style="endArrow=none;html=1;rounded=0;entryX=0;entryY=0.5;entryDx=0;entryDy=0;exitX=1;exitY=0.5;exitDx=0;exitDy=0;" edge="1" parent="1" source="f0kvpbH76hxMQlUbmfYy-80" target="f0kvpbH76hxMQlUbmfYy-12">
          <mxGeometry relative="1" as="geometry">
            <mxPoint x="510" y="520" as="sourcePoint" />
            <mxPoint x="570" y="489.9000000000001" as="targetPoint" />
          </mxGeometry>
        </mxCell>
        <mxCell id="f0kvpbH76hxMQlUbmfYy-84" value="1" style="resizable=0;html=1;whiteSpace=wrap;align=right;verticalAlign=bottom;" connectable="0" vertex="1" parent="f0kvpbH76hxMQlUbmfYy-83">
          <mxGeometry x="1" relative="1" as="geometry">
            <mxPoint x="-10" as="offset" />
          </mxGeometry>
        </mxCell>
      </root>
    </mxGraphModel>
  </diagram>
</mxfile>
